<?xml version="1.0" encoding="UTF-8" standalone="no"?>
<!-- Uploaded to: SVG Repo, www.svgrepo.com, Generator: SVG Repo Mixer Tools -->

<svg
   width="800px"
   height="800px"
   viewBox="0 0 24 24"
   fill="none"
   version="1.1"
   id="svg38"
   sodipodi:docname="email_dark.svg"
   inkscape:version="1.2.2 (b0a8486541, 2022-12-01)"
   xmlns:inkscape="http://www.inkscape.org/namespaces/inkscape"
   xmlns:sodipodi="http://sodipodi.sourceforge.net/DTD/sodipodi-0.dtd"
   xmlns="http://www.w3.org/2000/svg"
   xmlns:svg="http://www.w3.org/2000/svg">
  <defs
     id="defs42" />
  <sodipodi:namedview
     id="namedview40"
     pagecolor="#505050"
     bordercolor="#eeeeee"
     borderopacity="1"
     inkscape:showpageshadow="0"
     inkscape:pageopacity="0"
     inkscape:pagecheckerboard="0"
     inkscape:deskcolor="#505050"
     showgrid="false"
     inkscape:zoom="0.52625"
     inkscape:cx="362.94537"
     inkscape:cy="405.70071"
     inkscape:window-width="1452"
     inkscape:window-height="749"
     inkscape:window-x="116"
     inkscape:window-y="118"
     inkscape:window-maximized="0"
     inkscape:current-layer="svg38" />
  <path
     fill-rule="evenodd"
     clip-rule="evenodd"
     d="m 23.974136,12.049243 c 0,6.59991 -5.346752,11.950296 -11.942179,11.950296 -6.5954866,0 -11.94217936,-5.350386 -11.94217936,-11.950296 0,-6.5999699 5.34669276,-11.95029704 11.94217936,-11.95029704 6.595427,0 11.942179,5.35032714 11.942179,11.95029704 z M 6.0668384,8.4641538 c 0,-0.6572664 0.5314269,-1.1950298 1.1882467,-1.1950298 h 9.5537429 c 0.65682,0 1.194218,0.5377634 1.194218,1.1950298 v 7.1701782 c 0,0.657266 -0.537398,1.19503 -1.194218,1.19503 H 7.2550851 c -0.6568198,0 -1.1942179,-0.537764 -1.1942179,-1.19503 z M 12.031957,12.646757 7.2550971,9.6591476 V 15.634332 H 16.808828 V 9.6591476 Z m 0,-1.195029 -4.7768599,-2.9875623 h 9.5537309 z"
     fill="#000000"
     id="path36"
     style="stroke-width:1.19462" />
  <path
     style="fill:#ffffff;stroke-width:1.90024"
     d="m 229.03521,557.54041 c -9.5957,-3.51282 -17.62278,-11.03742 -22.1072,-20.72331 -3.3147,-7.15939 -3.51913,-14.9969 -3.51913,-134.91686 0,-119.91996 0.20443,-127.75747 3.51913,-134.91687 1.93552,-4.18052 5.97849,-9.90713 8.98439,-12.7258 12.28037,-11.51545 4.06406,-11.02717 185.55371,-11.02717 h 165.95871 l 10.00188,4.98415 c 6.51671,3.24742 11.77832,7.66812 15.09995,12.68668 l 5.09805,7.70252 0.51329,130.78203 c 0.4973,126.71081 0.39727,131.00943 -3.21347,138.08707 -4.85353,9.51372 -15.31494,18.58026 -24.32627,21.08272 -4.7691,1.32439 -62.01809,1.95193 -170.59825,1.87001 -137.98701,-0.10414 -164.59457,-0.55312 -170.96479,-2.88517 z M 560.57007,421.63419 V 320.70305 l -4.27553,2.72483 c -2.35155,1.49865 -38.23086,23.91105 -79.73182,49.80532 l -75.45631,47.0805 -77.51282,-48.35072 c -42.63206,-26.5929 -78.58171,-48.95742 -79.88813,-49.69893 -1.88733,-1.07123 -2.37529,19.36453 -2.37529,99.47654 v 100.82473 h 159.61995 159.61995 z m -81.23063,-87.39704 c 42.06402,-26.24083 77.73216,-48.90116 79.26254,-50.3563 2.37879,-2.26185 -20.48983,-2.6457 -157.62471,-2.6457 -107.04105,0 -159.7744,0.63281 -158.50513,1.90207 3.53077,3.53078 155.60569,98.46664 158.00744,98.63937 1.3089,0.0941 36.79584,-21.29862 78.85986,-47.53944 z"
     id="path271"
     transform="scale(0.03)" />
</svg>
