<?xml version="1.0" encoding="UTF-8" standalone="no"?>
<!-- Uploaded to: SVG Repo, www.svgrepo.com, Generator: SVG Repo Mixer Tools -->

<svg
   width="800px"
   height="800px"
   viewBox="0 0 73 73"
   version="1.1"
   id="svg4785"
   sodipodi:docname="github_light.svg"
   inkscape:version="1.2.2 (b0a8486541, 2022-12-01)"
   xmlns:inkscape="http://www.inkscape.org/namespaces/inkscape"
   xmlns:sodipodi="http://sodipodi.sourceforge.net/DTD/sodipodi-0.dtd"
   xmlns="http://www.w3.org/2000/svg"
   xmlns:svg="http://www.w3.org/2000/svg"
   xmlns:rdf="http://www.w3.org/1999/02/22-rdf-syntax-ns#"
   xmlns:cc="http://creativecommons.org/ns#"
   xmlns:dc="http://purl.org/dc/elements/1.1/">
  <sodipodi:namedview
     id="namedview4787"
     pagecolor="#505050"
     bordercolor="#eeeeee"
     borderopacity="1"
     inkscape:showpageshadow="0"
     inkscape:pageopacity="0"
     inkscape:pagecheckerboard="0"
     inkscape:deskcolor="#505050"
     showgrid="false"
     inkscape:zoom="0.74422989"
     inkscape:cx="79.27658"
     inkscape:cy="320.4655"
     inkscape:window-width="1854"
     inkscape:window-height="1011"
     inkscape:window-x="66"
     inkscape:window-y="32"
     inkscape:window-maximized="1"
     inkscape:current-layer="svg4785" />
  <title
     id="title4775">team-collaboration/version-control/github</title>
  <desc
     id="desc4777">Created with Sketch.</desc>
  <defs
     id="defs4779" />
  <g
     id="team-collaboration/version-control/github"
     stroke="none"
     stroke-width="1"
     fill="none"
     fill-rule="evenodd">
    <g
       id="container"
       transform="translate(2.000000, 2.000000)"
       fill-rule="nonzero">
      <rect
         id="mask"
         stroke="#000000"
         stroke-width="2"
         fill="#000000"
         x="-1"
         y="-1"
         width="71"
         height="71"
         rx="14" />
      <path
         d="M58.3067362,21.4281798 C55.895743,17.2972267 52.6253846,14.0267453 48.4948004,11.615998 C44.3636013,9.20512774 39.8535636,8 34.9614901,8 C30.0700314,8 25.5585181,9.20549662 21.4281798,11.615998 C17.2972267,14.0266224 14.0269912,17.2972267 11.615998,21.4281798 C9.20537366,25.5590099 8,30.0699084 8,34.9607523 C8,40.8357654 9.71405782,46.1187277 13.1430342,50.8109917 C16.5716416,55.5036246 21.0008949,58.7507436 26.4304251,60.5527176 C27.0624378,60.6700211 27.5302994,60.5875152 27.8345016,60.3072901 C28.1388268,60.0266961 28.290805,59.6752774 28.290805,59.2545094 C28.290805,59.1842994 28.2847799,58.5526556 28.2730988,57.3588401 C28.2610487,56.1650247 28.2553926,55.1235563 28.2553926,54.2349267 L27.4479164,54.3746089 C26.9330843,54.468919 26.2836113,54.5088809 25.4994975,54.4975686 C24.7157525,54.4866252 23.9021284,54.4044881 23.0597317,54.2517722 C22.2169661,54.1004088 21.4330982,53.749359 20.7075131,53.1993604 C19.982297,52.6493618 19.4674649,51.9294329 19.1631397,51.0406804 L18.8120898,50.2328353 C18.5780976,49.6950097 18.2097104,49.0975487 17.7064365,48.4426655 C17.2031625,47.7871675 16.6942324,47.3427912 16.1794003,47.108799 L15.9336039,46.9328437 C15.7698216,46.815909 15.6178435,46.6748743 15.4773006,46.511215 C15.3368806,46.3475556 15.2317501,46.1837734 15.1615401,46.0197452 C15.0912072,45.855594 15.1494901,45.7209532 15.3370036,45.6153308 C15.5245171,45.5097084 15.8633939,45.4584343 16.3551097,45.4584343 L17.0569635,45.5633189 C17.5250709,45.6571371 18.104088,45.9373622 18.7947525,46.4057156 C19.4850481,46.8737001 20.052507,47.4821045 20.4972521,48.230683 C21.0358155,49.1905062 21.6846737,49.9218703 22.4456711,50.4251443 C23.2060537,50.9284182 23.9727072,51.1796248 24.744894,51.1796248 C25.5170807,51.1796248 26.1840139,51.121096 26.7459396,51.0046532 C27.3072505,50.8875956 27.8338868,50.7116403 28.3256025,50.477771 C28.5362325,48.9090515 29.1097164,47.7039238 30.0455624,46.8615271 C28.7116959,46.721353 27.5124702,46.5102313 26.4472706,46.2295144 C25.3826858,45.9484285 24.2825656,45.4922482 23.1476478,44.8597436 C22.0121153,44.2280998 21.0701212,43.44374 20.3214198,42.5080169 C19.5725954,41.571802 18.9580429,40.3426971 18.4786232,38.821809 C17.9989575,37.300306 17.7590632,35.5451796 17.7590632,33.5559381 C17.7590632,30.7235621 18.6837199,28.3133066 20.5326645,26.3238191 C19.6665366,24.1944035 19.7483048,21.8072644 20.778215,19.1626478 C21.4569523,18.951772 22.4635002,19.1100211 23.7973667,19.6364115 C25.1314792,20.1630477 26.1082708,20.6141868 26.7287253,20.9882301 C27.3491798,21.3621504 27.8463057,21.6790175 28.2208409,21.9360032 C30.3978419,21.3277217 32.644438,21.0235195 34.9612442,21.0235195 C37.2780503,21.0235195 39.5251383,21.3277217 41.7022622,21.9360032 L43.0362517,21.0938524 C43.9484895,20.5319267 45.0257392,20.0169716 46.2654186,19.5488642 C47.5058357,19.0810026 48.4543466,18.9521409 49.1099676,19.1630167 C50.1627483,21.8077563 50.2565666,24.1947724 49.3901927,26.324188 C51.2390143,28.3136755 52.1640399,30.7245457 52.1640399,33.556307 C52.1640399,35.5455485 51.9232849,37.3062081 51.444357,38.8393922 C50.9648143,40.3728223 50.3449746,41.6006975 49.5845919,42.5256002 C48.8233486,43.4503799 47.8753296,44.2285916 46.7404118,44.8601125 C45.6052481,45.4921252 44.504759,45.9483056 43.4401742,46.2293914 C42.3750975,46.5104772 41.1758719,46.7217219 39.8420054,46.8621419 C41.0585683,47.9149226 41.6669728,49.5767225 41.6669728,51.846804 L41.6669728,59.2535257 C41.6669728,59.6742937 41.8132948,60.0255895 42.1061847,60.3063064 C42.3987058,60.5865315 42.8606653,60.6690374 43.492678,60.5516109 C48.922946,58.7498829 53.3521992,55.5026409 56.7806837,50.810008 C60.2087994,46.117744 61.923472,40.8347817 61.923472,34.9597686 C61.9222424,30.0695396 60.7162539,25.5590099 58.3067362,21.4281798 Z"
         id="Shape"
         fill="#FFFFFF" />
    </g>
  </g>
  <path
     style="fill:#ffffff;stroke-width:0.184632"
     d="M 3.9863001,72.619675 C 2.8881816,72.274752 1.9965621,71.680158 1.3464969,70.859276 0.15671075,69.356842 0.23405669,71.745135 0.23405669,36.509375 0.23405669,1.0058498 0.14203214,3.6380523 1.4385787,2.0555756 1.8196086,1.5905167 2.5187515,1.0540293 3.1438769,0.74701675 L 4.2033816,0.22666972 H 36.524886 68.846391 l 1.089394,0.5572145 c 1.208212,0.61798408 2.294265,1.86457478 2.645267,3.03627438 0.297403,0.9927906 0.297403,64.3856474 0,65.3784364 -0.350992,1.171666 -1.437065,2.41829 -2.645227,3.036275 l -1.089363,0.557213 -32.044607,0.0349 C 10.804597,72.85524 4.6117512,72.816125 3.9863001,72.619675 Z M 21.834564,44.726072 V 27.277138 H 16.295973 10.75738 v 17.448934 17.448934 h 5.538593 5.538591 z m 17.53887,7.747297 c 0,-8.122673 0.04743,-9.931493 0.291688,-11.113938 0.512216,-2.480187 1.492828,-3.87213 3.3084,-4.696178 0.74807,-0.339535 1.256466,-0.420099 2.681316,-0.424909 1.520848,-0.0052 1.8796,0.05649 2.657302,0.456505 1.115535,0.573774 1.830573,1.439161 2.369173,2.867332 0.410987,1.089789 0.416061,1.218037 0.46996,11.857264 l 0.05444,10.755561 h 5.530269 5.530266 l -1.86e-4,-10.478592 c -8.6e-5,-5.841911 -0.08523,-11.376009 -0.192429,-12.50669 -0.793956,-8.373802 -4.048027,-12.067185 -11.136505,-12.639987 -3.649094,-0.294879 -6.093246,0.2373 -8.507724,1.852423 -1.291282,0.863775 -2.121198,1.649646 -3.004281,2.844839 l -0.409282,0.553934 -0.0061,-2.264731 -0.0061,-2.264729 -5.307815,0.04899 -5.307816,0.04899 -0.04708,17.402773 -0.0471,17.402773 h 5.539532 5.539532 z M 18.641585,22.261697 c 1.4576,-0.54543 2.986836,-2.074875 3.532194,-3.532672 0.906342,-2.422738 0.363751,-4.996022 -1.432164,-6.79218 -1.29426,-1.294437 -2.598191,-1.831678 -4.445642,-1.831678 -1.847454,0 -3.151384,0.537241 -4.445644,1.831678 -1.795913,1.796158 -2.3385022,4.369442 -1.432164,6.79218 0.531945,1.421943 2.074902,2.984383 3.47977,3.52371 1.395996,0.535919 3.325679,0.539567 4.74365,0.0089 z"
     id="path974" />
  <path
     style="fill:#ffffff;stroke-width:1.90024"
     d="M 131.11639,795.35004 C 80.967379,784.69294 40.664547,753.27329 18.078294,707.22675 7.9926607,686.66518 4.3294297,673.47238 1.8914212,648.93112 c -2.35922966,-23.74826 -2.35922966,-474.11397 0,-497.86224 C 4.3294297,126.52762 7.9926607,113.33481 18.078294,92.773254 38.629435,50.875686 75.019037,20.480806 121.6152,6.2927247 L 135.86698,1.9531956 391.44893,1.3921288 c 173.08068,-0.3799557 259.79443,0.088287 268.63185,1.4505768 28.74905,4.4316693 59.65894,18.5894064 82.3401,37.7144324 22.7299,19.166136 42.69502,51.465116 51.47088,83.268142 l 5.15812,18.69253 V 400 657.48218 l -5.03327,18.2004 c -17.22925,62.30131 -64.27362,107.03088 -125.96004,119.76228 -16.33883,3.37215 -30.18145,3.5495 -269.00669,3.44635 -235.31029,-0.10162 -252.83811,-0.33328 -267.93349,-3.54117 z m 196.76095,-113.0784 c 4.5767,-4.57669 4.66423,-5.25486 4.66423,-36.14071 v -31.47649 l -5.22566,1.46138 c -9.94261,2.7805 -46.35325,1.45799 -57.48218,-2.08787 -18.99134,-6.05094 -26.98345,-13.6643 -38.03088,-36.22844 -9.7204,-19.85372 -15.89575,-27.57941 -36.25575,-45.35776 -9.4319,-8.23594 -8.26737,-10.77766 4.92796,-10.75573 15.98829,0.0266 32.58029,11.09405 45.71388,30.49277 16.04374,23.69712 28.33456,31.09897 51.32388,30.90853 15.73982,-0.13036 34.75078,-4.85988 35.9287,-8.93825 0.3459,-1.19766 1.70968,-6.34996 3.03063,-11.44955 1.32093,-5.0996 5.23158,-13.38589 8.69032,-18.41401 7.07593,-10.28659 7.3223,-9.9799 -9.77055,-12.16281 -39.58687,-5.05562 -78.44152,-26.90968 -95.72249,-53.83972 -13.74768,-21.4239 -21.27779,-51.41248 -21.32682,-84.93381 -0.0467,-31.90966 6.67238,-53.69239 22.79362,-73.89549 6.90371,-8.65174 6.70217,-6.99793 2.84826,-23.37378 -3.62377,-15.39798 -2.68735,-34.16038 2.54286,-50.94926 l 3.55187,-11.40142 11.30244,0.0705 c 12.74809,0.0794 35.92971,9.03681 57.67453,22.28538 l 12.16783,7.41355 11.58514,-2.89176 c 33.03365,-8.24549 84.21644,-8.87943 118.6472,-1.46953 l 17.75092,3.8202 16.44995,-9.43225 c 31.55043,-18.09068 58.52158,-25.65834 64.12671,-17.99285 3.78476,5.17596 8.38708,27.89552 8.38708,41.40313 0,6.62873 -1.28169,16.97296 -2.84819,22.98719 l -2.84819,10.93494 7.38488,9.89186 c 19.47502,26.08629 26.04057,55.13782 21.18284,93.73083 -9.0591,71.97146 -45.80757,106.86719 -125.79368,119.45155 l -6.96034,1.09509 6.45501,9.59211 c 11.20994,16.65781 12.21627,23.17363 12.21627,79.09802 0,40.25889 0.54634,51.16228 2.78007,55.48184 4.63226,8.95782 11.33353,9.86309 28.75143,3.88405 64.64883,-22.19194 126.45335,-77.1048 160.14453,-142.28718 13.01206,-25.17448 20.91696,-47.38284 27.11846,-76.1878 3.69091,-17.14362 4.29564,-25.57023 4.29564,-59.85749 0,-33.99335 -0.61895,-42.76165 -4.17804,-59.18814 C 670.50717,228.49583 583.25085,140.45119 467.17212,114.79667 c -27.94873,-6.17694 -81.10835,-7.15498 -111.03549,-2.04283 -167.67117,28.6415 -275.316049,187.15922 -241.08555,355.02227 17.0148,83.43892 76.33695,161.26632 152.64986,200.26824 21.43846,10.95673 41.82216,18.74852 49.25003,18.82611 4.17642,0.0437 7.81568,-1.48811 10.92637,-4.59882 z"
     id="path5163"
     transform="scale(0.09125)" />
  <path
     style="fill:#000000;stroke-width:1.90024"
     d="m 303.08789,681.37343 c -67.5724,-24.07065 -128.69457,-79.27994 -162.7435,-146.9999 -42.427155,-84.38343 -38.7599,-193.82544 9.23823,-275.69724 31.47355,-53.68533 72.23008,-91.36591 128.80218,-119.08128 79.66903,-39.03085 177.43914,-38.28223 257.85303,1.97438 67.86883,33.9763 124.26317,98.23554 147.62569,168.21393 11.64683,34.88604 14.34463,52.98158 14.3,95.91739 -0.0342,32.89775 -0.69053,41.96523 -4.22104,58.31527 -12.62586,58.47156 -38.26432,105.11132 -81.95092,149.0796 -31.2907,31.49245 -59.49761,50.19871 -99.88714,66.24316 -16.74319,6.65109 -21.68833,7.01879 -27.8084,2.06774 l -4.48604,-3.62915 -0.95839,-56.70339 c -0.91333,-54.03804 -1.16332,-57.14889 -5.31846,-66.1809 -2.39806,-5.21264 -6.15664,-11.38986 -8.3524,-13.72715 -4.66704,-4.96781 -4.93824,-4.8248 15.56927,-8.20998 44.59731,-7.36165 79.45038,-29.43791 95.74606,-60.6464 9.39658,-17.99576 14.23998,-35.65216 16.79794,-61.23624 3.71007,-37.10702 -1.68475,-62.27243 -18.74044,-87.41934 l -9.89442,-14.58835 2.8498,-9.16462 c 3.86273,-12.42205 2.42869,-43.32387 -2.67398,-57.62068 l -3.73014,-10.4513 -13.09399,0.15593 c -15.24023,0.18149 -33.09438,6.84532 -55.72741,20.79952 l -13.79597,8.50578 -10.74016,-2.75085 c -31.41534,-8.04634 -85.3432,-8.65171 -119.0537,-1.33645 l -17.10214,3.71121 -6.77986,-4.3643 c -22.25153,-14.32362 -53.80691,-26.1796 -67.37653,-25.3147 l -9.3171,0.59386 -3.49197,11.40142 c -5.31704,17.3603 -6.29006,39.28457 -2.42331,54.60251 l 3.23045,12.79728 -6.57756,8.10533 c -16.12158,19.86613 -22.65289,41.55183 -22.47216,74.61365 0.18449,33.7516 4.80939,54.429 17.75576,79.384 16.14031,31.11156 50.4128,52.9268 94.61201,60.22274 20.46254,3.37775 19.71917,2.71349 13.29268,11.87843 -3.13728,4.47413 -6.77251,12.71012 -8.07827,18.30217 -2.86212,12.25726 -6.34376,14.54488 -26.75729,17.581 -24.92631,3.70734 -41.93143,-4.62831 -58.14291,-28.50079 -14.41343,-21.2247 -31.20218,-32.38451 -48.83272,-32.46003 -17.19059,-0.0735 -17.63169,9.22714 -0.93741,19.76578 11.05296,6.97743 20.5698,19.2464 29.63794,38.20882 4.51373,9.43867 11.07357,20.02265 14.57741,23.51996 13.73143,13.7058 41.12372,20.72977 71.45376,18.32222 l 15.67696,-1.24441 v 29.22157 c 0,28.08802 -0.17064,29.38185 -4.398,33.35329 -5.2298,4.91312 -10.38748,5.01771 -23.15544,0.46951 z"
     id="path5165"
     transform="scale(0.09125)" />
  <metadata
     id="metadata5183">
    <rdf:RDF>
      <cc:Work
         rdf:about="">
        <dc:title>team-collaboration/version-control/github</dc:title>
      </cc:Work>
    </rdf:RDF>
  </metadata>
</svg>
