<?xml version="1.0" encoding="UTF-8" standalone="no"?>
<!-- Uploaded to: SVG Repo, www.svgrepo.com, Generator: SVG Repo Mixer Tools -->

<svg
   fill="#000000"
   width="800px"
   height="800px"
   viewBox="0 0 32 32"
   version="1.1"
   id="svg38607"
   sodipodi:docname="instagram_light.svg"
   inkscape:version="1.2.2 (b0a8486541, 2022-12-01)"
   xmlns:inkscape="http://www.inkscape.org/namespaces/inkscape"
   xmlns:sodipodi="http://sodipodi.sourceforge.net/DTD/sodipodi-0.dtd"
   xmlns="http://www.w3.org/2000/svg"
   xmlns:svg="http://www.w3.org/2000/svg">
  <defs
     id="defs38611" />
  <sodipodi:namedview
     id="namedview38609"
     pagecolor="#505050"
     bordercolor="#eeeeee"
     borderopacity="1"
     inkscape:showpageshadow="0"
     inkscape:pageopacity="0"
     inkscape:pagecheckerboard="0"
     inkscape:deskcolor="#505050"
     showgrid="false"
     inkscape:zoom="0.74422989"
     inkscape:cx="477.00315"
     inkscape:cy="395.71106"
     inkscape:window-width="1854"
     inkscape:window-height="1011"
     inkscape:window-x="66"
     inkscape:window-y="32"
     inkscape:window-maximized="1"
     inkscape:current-layer="svg38607" />
  <title
     id="title38602" />
  <g
     id="Instagram"
     transform="matrix(1.1383415,0,0,1.1386101,-2.1960012,-2.1718703)">
    <path
       d="M 26.49,30 H 5.5 A 3.35,3.35 0 0 1 3,29 3.35,3.35 0 0 1 2,26.52 V 5.5 A 3.35,3.35 0 0 1 3,3 3.35,3.35 0 0 1 5.5,2 h 21 a 3.35,3.35 0 0 1 2.5,1 3.35,3.35 0 0 1 1,2.5 v 21 A 3.52,3.52 0 0 1 26.49,30 Z M 24.74,10.56 A 3.45,3.45 0 0 0 21.26,7.07 H 10.71 A 3.47,3.47 0 0 0 7.23,10.56 V 21.1 a 3.45,3.45 0 0 0 3.48,3.49 h 10.55 a 3.43,3.43 0 0 0 3.48,-3.49 z m -8.73,0.9 a 4.09,4.09 0 0 0 -1.38,0.24 5.36,5.36 0 0 0 -1.24,0.63 H 9 v -0.87 a 2.56,2.56 0 0 1 2.61,-2.62 h 8.75 a 2.63,2.63 0 0 1 1.89,0.75 2.48,2.48 0 0 1 0.75,1.87 v 0.87 H 18.6 A 6.14,6.14 0 0 0 17.38,11.7 3.87,3.87 0 0 0 16,11.46 Z m 4.35,11.41 H 11.61 A 2.48,2.48 0 0 1 9.75,22.09 2.57,2.57 0 0 1 9,20.24 v -7 h 3.49 a 5.49,5.49 0 0 0 -0.63,1.23 3.82,3.82 0 0 0 -0.25,1.4 4.19,4.19 0 0 0 0.39,1.68 5,5 0 0 0 0.93,1.39 4.28,4.28 0 0 0 1.4,0.95 4.24,4.24 0 0 0 1.72,0.35 4.29,4.29 0 0 0 3.08,-1.3 5,5 0 0 0 0.87,-1.39 4.19,4.19 0 0 0 0.35,-1.69 3.82,3.82 0 0 0 -0.25,-1.4 6.37,6.37 0 0 0 -0.6,-1.23 H 23 v 7 a 2.52,2.52 0 0 1 -0.78,1.85 2.57,2.57 0 0 1 -1.86,0.79 z M 16,13.23 a 2.55,2.55 0 0 1 1.85,0.75 2.63,2.63 0 0 1 0,3.74 2.55,2.55 0 0 1 -1.85,0.75 2.63,2.63 0 0 1 -1.9,-0.75 2.66,2.66 0 0 1 0,-3.74 2.63,2.63 0 0 1 1.9,-0.75 z m 3.5,-1.77 h 1.75 V 9.71 h -1.74 z"
       id="path38604" />
  </g>
  <path
     style="fill:#000000;stroke-width:1.34367"
     d="m 237.06963,644.19963 c -10.55995,-1.25937 -26.29522,-6.4291 -35.519,-11.66955 -17.69876,-10.05548 -31.20912,-24.73236 -40.50498,-44.00225 -9.56991,-19.83798 -9.16156,-11.30973 -9.18751,-191.87968 -0.0262,-182.41827 -0.5905,-171.60247 10.11726,-193.92483 13.95326,-29.08823 43.18281,-49.92493 76.09732,-54.24706 7.70438,-1.01169 60.45165,-1.3353 169.73138,-1.04132 l 158.55316,0.42654 10.04076,3.08203 c 17.75257,5.44918 30.34346,12.9598 43.08355,25.69989 13.00696,13.00697 20.54873,25.83415 25.74917,43.79465 l 3.09044,10.67333 v 164.59968 c 0,127.95258 -0.37813,166.20448 -1.69836,171.80763 -8.5742,36.38941 -35.24251,64.29165 -71.14644,74.43836 l -10.46279,2.95686 -159.225,0.20899 c -87.57374,0.11488 -163.49728,-0.30053 -168.71896,-0.92327 z m 306.36822,-49.60558 c 25.21419,-6.44871 44.98056,-25.51251 54.35486,-52.42286 1.83019,-5.25384 2.16058,-20.09463 2.52021,-113.20427 l 0.41388,-107.15775 h -50.44062 c -27.74234,0 -50.44063,0.21539 -50.44063,0.47864 0,0.26325 2.98697,6.15861 6.63771,13.10079 13.81714,26.27446 19.02588,50.05315 16.23077,74.09594 -6.60744,56.83504 -47.45708,101.21719 -101.13029,109.87562 -14.36947,2.31803 -40.53473,1.03051 -52.74609,-2.59552 -12.94813,-3.84479 -31.9437,-13.27639 -41.89152,-20.7998 -20.52581,-15.52338 -38.2063,-41.77853 -46.24818,-68.67751 -3.92402,-13.12533 -4.98756,-40.88248 -2.04584,-53.39387 2.99553,-12.74023 9.15729,-28.11112 16.25795,-40.55652 3.33972,-5.85355 6.07221,-10.84192 6.07221,-11.08529 0,-0.24336 -22.67445,-0.44248 -50.38766,-0.44248 h -50.38765 l 0.0233,103.12673 c 0.0259,114.43088 -0.0136,113.83686 8.75109,131.64855 9.84638,20.00993 31.33681,36.11686 53.03444,39.74896 1.84755,0.30928 63.57649,0.64466 137.17541,0.7453 129.41217,0.17696 134.1595,0.0951 144.24663,-2.48466 z M 416.92341,470.32128 c 27.76298,-5.8829 50.0537,-27.86492 56.65451,-55.86989 6.13857,-26.04382 -1.17171,-51.84598 -19.97762,-70.5125 -16.74316,-16.61906 -33.64096,-22.96289 -57.88924,-21.73298 -28.52638,1.44691 -51.73338,16.2286 -63.72688,40.59085 -10.78852,21.91461 -10.7249,45.10188 0.18615,67.82938 14.80359,30.83559 49.61629,47.14055 84.75308,39.69514 z M 335.79962,291.67283 c 11.93699,-6.96654 27.80759,-13.46008 40.2933,-16.48622 13.25918,-3.2136 38.24087,-2.83983 51.86624,0.77602 10.56494,2.80369 35.02209,13.77254 42.3621,18.99909 3.59819,2.56213 6.09719,2.66137 67.01858,2.66137 h 63.28103 l -0.0107,-15.78813 c -0.005,-8.68347 -0.6403,-19.67191 -1.41049,-24.41875 -4.02133,-24.78445 -22.47619,-46.44524 -48.05506,-56.40304 l -8.97338,-3.49356 -138.03211,-0.37224 c -151.5619,-0.40872 -147.01237,-0.62208 -163.42741,7.66421 -10.09864,5.09777 -22.1085,16.07509 -28.66757,26.20289 -8.27274,12.77384 -10.68047,22.43488 -11.49346,46.11764 l -0.70342,20.49098 h 62.87838 62.87839 z"
     id="path38613"
     transform="scale(0.04)" />
  <path
     style="fill:#000000;stroke-width:1.34367"
     d="m 501.18922,246.5636 v -24.18608 h 24.18608 24.18607 v 24.18608 24.18607 H 525.3753 501.18922 Z"
     id="path38615"
     transform="scale(0.04)" />
  <path
     style="fill:#ffffff;stroke-width:1.34367"
     d="M 78.476769,796.81679 C 43.687338,789.24774 13.801021,759.77029 5.4042445,724.74398 2.7427783,713.64192 2.7060415,709.25394 2.6967554,401.351 2.6861832,50.799913 1.7893553,80.613428 13.05079,57.14877 18.270372,46.273096 20.935381,42.648698 31.412919,32.176376 41.744417,21.850021 45.674047,18.941505 56.434175,13.65688 79.124417,2.5130169 50.859669,3.3591771 400.41391,3.3591771 c 349.45072,0 321.25616,-0.8418906 343.97973,10.2712469 10.78956,5.276712 14.65804,8.135927 24.99885,18.476736 10.34081,10.34081 13.20002,14.209299 18.47674,24.998851 11.11103,22.719262 10.27125,-5.251719 10.27125,342.108709 0,349.02006 0.90676,319.89144 -10.70489,343.87947 -13.22205,27.31487 -36.45812,45.85626 -66.55619,53.10901 -10.46221,2.52109 -19.07691,2.58768 -322.481,2.49287 C 144.7637,798.6168 85.140411,798.26658 78.476769,796.81679 Z M 583.88104,640.88676 c 26.3066,-9.92148 45.35265,-27.1731 56.57136,-51.24148 9.62727,-20.65412 9.03826,-9.29176 9.56576,-184.52852 0.31256,-103.83323 -0.004,-162.03227 -0.92359,-170.00676 -5.49755,-47.65359 -40.35885,-82.57199 -87.91645,-88.06045 -8.1845,-0.94455 -64.7927,-1.25936 -169.49807,-0.94263 -142.49848,0.43107 -157.99439,0.68819 -165.59735,2.74785 -33.91741,9.18833 -59.51065,32.97774 -71.14701,66.13256 l -3.77272,10.74937 v 170.6462 170.64619 l 4.21206,11.77219 c 5.96054,16.65903 11.59581,25.48908 24.67686,38.66681 9.50591,9.57616 13.56183,12.56003 24.18608,17.79335 22.11138,10.89165 8.3238,10.20268 198.86328,9.9373 L 573.07561,644.962 Z"
     id="path38697"
     transform="scale(0.04)" />
  <path
     style="fill:#ffffff;stroke-width:1.34367"
     d="m 259.4043,594.4528 c -22.77662,-4.46624 -44.79602,-24.47393 -53.69053,-48.78533 l -3.49131,-9.54281 -0.38919,-106.48591 -0.38918,-106.48591 h 48.42542 c 26.63398,0 48.42542,0.27571 48.42542,0.6127 0,0.33699 -1.89496,3.81374 -4.21101,7.72611 -24.46756,41.33157 -24.86915,87.39023 -1.11232,127.57218 17.40856,29.44457 43.79976,50.04085 75.86605,59.20756 9.29259,2.65645 13.75393,3.06606 32.91993,3.02241 26.41157,-0.0602 32.82499,-1.47204 54.41867,-11.98018 23.95682,-11.6581 39.71749,-27.03095 52.7023,-51.40543 17.75402,-33.32703 20.65695,-69.24938 8.28376,-102.50725 -2.93405,-7.88647 -12.64854,-27.77683 -14.9297,-30.56851 -1.09339,-1.33809 8.64373,-1.67959 47.88934,-1.67959 h 49.26178 l -0.38919,106.48591 -0.38918,106.48591 -3.49356,8.97399 c -1.92145,4.93569 -5.44459,12.01444 -7.82921,15.73052 -5.8836,9.16879 -19.25582,21.39822 -29.14834,26.65731 -16.26249,8.6455 -11.63165,8.40491 -159.06401,8.26445 -73.53239,-0.07 -136.38206,-0.65421 -139.66594,-1.29813 z"
     id="path38699"
     transform="scale(0.04)" />
  <path
     style="fill:#ffffff;stroke-width:1.34367"
     d="m 201.56078,281.83496 c 0.0144,-20.55336 1.82729,-30.0847 8.20261,-43.12648 8.58262,-17.5572 21.99003,-29.56133 41.23215,-36.9166 l 7.6611,-2.92844 138.22305,-0.37247 c 150.21755,-0.40479 144.97466,-0.63316 161.13293,7.01844 16.8546,7.98134 31.83922,24.93901 37.45087,42.38211 2.13573,6.63859 2.97548,13.53137 3.48057,28.56875 l 0.66569,19.81915 h -62.13529 -62.13529 l -7.76453,-4.71671 c -23.02456,-13.98667 -43.44094,-19.94439 -67.83257,-19.79426 -23.20879,0.14285 -44.21535,6.28976 -65.62684,19.20363 l -8.79969,5.30734 H 263.43308 201.55063 Z M 550.90504,246.5636 V 221.03385 H 525.3753 499.84555 v 25.52975 25.52974 h 25.52975 25.52974 z"
     id="path38701"
     transform="scale(0.04)" />
  <path
     style="fill:#ffffff;stroke-width:1.34367"
     d="m 382.94619,468.85163 c -13.92664,-3.01587 -24.98461,-9.20871 -35.63025,-19.95418 -5.18577,-5.2344 -11.09434,-12.64645 -13.13015,-16.47122 -4.63374,-8.7056 -9.01745,-25.55889 -9.01745,-34.66782 0,-34.914 23.5884,-64.78677 57.44191,-72.74546 13.11578,-3.08342 31.6982,-1.93747 44.00524,2.71374 28.16616,10.64486 47.743,38.81201 47.68046,68.60259 -0.0435,20.73411 -7.03701,37.36901 -22.10987,52.59125 -18.52241,18.70599 -42.72533,25.67293 -69.23989,19.9311 z"
     id="path38703"
     transform="scale(0.04)" />
</svg>
