<?xml version="1.0" encoding="UTF-8" standalone="no"?>
<!-- Uploaded to: SVG Repo, www.svgrepo.com, Generator: SVG Repo Mixer Tools -->

<svg
   fill="#000000"
   width="800px"
   height="800px"
   viewBox="0 0 32 32"
   version="1.1"
   id="svg38607"
   sodipodi:docname="instagram_dark.svg"
   inkscape:version="1.2.2 (b0a8486541, 2022-12-01)"
   xmlns:inkscape="http://www.inkscape.org/namespaces/inkscape"
   xmlns:sodipodi="http://sodipodi.sourceforge.net/DTD/sodipodi-0.dtd"
   xmlns="http://www.w3.org/2000/svg"
   xmlns:svg="http://www.w3.org/2000/svg">
  <defs
     id="defs38611" />
  <sodipodi:namedview
     id="namedview38609"
     pagecolor="#505050"
     bordercolor="#eeeeee"
     borderopacity="1"
     inkscape:showpageshadow="0"
     inkscape:pageopacity="0"
     inkscape:pagecheckerboard="0"
     inkscape:deskcolor="#505050"
     showgrid="false"
     inkscape:zoom="0.74422989"
     inkscape:cx="477.00315"
     inkscape:cy="394.36739"
     inkscape:window-width="1854"
     inkscape:window-height="1011"
     inkscape:window-x="66"
     inkscape:window-y="32"
     inkscape:window-maximized="1"
     inkscape:current-layer="svg38607" />
  <title
     id="title38602" />
  <g
     id="Instagram"
     transform="matrix(1.1383415,0,0,1.1386101,-2.1960012,-2.1718703)">
    <path
       d="M 26.49,30 H 5.5 A 3.35,3.35 0 0 1 3,29 3.35,3.35 0 0 1 2,26.52 V 5.5 A 3.35,3.35 0 0 1 3,3 3.35,3.35 0 0 1 5.5,2 h 21 a 3.35,3.35 0 0 1 2.5,1 3.35,3.35 0 0 1 1,2.5 v 21 A 3.52,3.52 0 0 1 26.49,30 Z M 24.74,10.56 A 3.45,3.45 0 0 0 21.26,7.07 H 10.71 A 3.47,3.47 0 0 0 7.23,10.56 V 21.1 a 3.45,3.45 0 0 0 3.48,3.49 h 10.55 a 3.43,3.43 0 0 0 3.48,-3.49 z m -8.73,0.9 a 4.09,4.09 0 0 0 -1.38,0.24 5.36,5.36 0 0 0 -1.24,0.63 H 9 v -0.87 a 2.56,2.56 0 0 1 2.61,-2.62 h 8.75 a 2.63,2.63 0 0 1 1.89,0.75 2.48,2.48 0 0 1 0.75,1.87 v 0.87 H 18.6 A 6.14,6.14 0 0 0 17.38,11.7 3.87,3.87 0 0 0 16,11.46 Z m 4.35,11.41 H 11.61 A 2.48,2.48 0 0 1 9.75,22.09 2.57,2.57 0 0 1 9,20.24 v -7 h 3.49 a 5.49,5.49 0 0 0 -0.63,1.23 3.82,3.82 0 0 0 -0.25,1.4 4.19,4.19 0 0 0 0.39,1.68 5,5 0 0 0 0.93,1.39 4.28,4.28 0 0 0 1.4,0.95 4.24,4.24 0 0 0 1.72,0.35 4.29,4.29 0 0 0 3.08,-1.3 5,5 0 0 0 0.87,-1.39 4.19,4.19 0 0 0 0.35,-1.69 3.82,3.82 0 0 0 -0.25,-1.4 6.37,6.37 0 0 0 -0.6,-1.23 H 23 v 7 a 2.52,2.52 0 0 1 -0.78,1.85 2.57,2.57 0 0 1 -1.86,0.79 z M 16,13.23 a 2.55,2.55 0 0 1 1.85,0.75 2.63,2.63 0 0 1 0,3.74 2.55,2.55 0 0 1 -1.85,0.75 2.63,2.63 0 0 1 -1.9,-0.75 2.66,2.66 0 0 1 0,-3.74 2.63,2.63 0 0 1 1.9,-0.75 z m 3.5,-1.77 h 1.75 V 9.71 h -1.74 z"
       id="path38604" />
  </g>
  <path
     style="fill:#ffffff;stroke-width:1.34367"
     d="m 237.06963,644.19963 c -10.55995,-1.25937 -26.29522,-6.4291 -35.519,-11.66955 -17.69876,-10.05548 -31.20912,-24.73236 -40.50498,-44.00225 -9.56991,-19.83798 -9.16156,-11.30973 -9.18751,-191.87968 -0.0262,-182.41827 -0.5905,-171.60247 10.11726,-193.92483 13.95326,-29.08823 43.18281,-49.92493 76.09732,-54.24706 7.70438,-1.01169 60.45165,-1.3353 169.73138,-1.04132 l 158.55316,0.42654 10.04076,3.08203 c 17.75257,5.44918 30.34346,12.9598 43.08355,25.69989 13.00696,13.00697 20.54873,25.83415 25.74917,43.79465 l 3.09044,10.67333 v 164.59968 c 0,127.95258 -0.37813,166.20448 -1.69836,171.80763 -8.5742,36.38941 -35.24251,64.29165 -71.14644,74.43836 l -10.46279,2.95686 -159.225,0.20899 c -87.57374,0.11488 -163.49728,-0.30053 -168.71896,-0.92327 z m 306.36822,-49.60558 c 25.21419,-6.44871 44.98056,-25.51251 54.35486,-52.42286 1.83019,-5.25384 2.16058,-20.09463 2.52021,-113.20427 l 0.41388,-107.15775 h -50.44062 c -27.74234,0 -50.44063,0.21539 -50.44063,0.47864 0,0.26325 2.98697,6.15861 6.63771,13.10079 13.81714,26.27446 19.02588,50.05315 16.23077,74.09594 -6.60744,56.83504 -47.45708,101.21719 -101.13029,109.87562 -14.36947,2.31803 -40.53473,1.03051 -52.74609,-2.59552 -12.94813,-3.84479 -31.9437,-13.27639 -41.89152,-20.7998 -20.52581,-15.52338 -38.2063,-41.77853 -46.24818,-68.67751 -3.92402,-13.12533 -4.98756,-40.88248 -2.04584,-53.39387 2.99553,-12.74023 9.15729,-28.11112 16.25795,-40.55652 3.33972,-5.85355 6.07221,-10.84192 6.07221,-11.08529 0,-0.24336 -22.67445,-0.44248 -50.38766,-0.44248 h -50.38765 l 0.0233,103.12673 c 0.0259,114.43088 -0.0136,113.83686 8.75109,131.64855 9.84638,20.00993 31.33681,36.11686 53.03444,39.74896 1.84755,0.30928 63.57649,0.64466 137.17541,0.7453 129.41217,0.17696 134.1595,0.0951 144.24663,-2.48466 z M 416.92341,470.32128 c 27.76298,-5.8829 50.0537,-27.86492 56.65451,-55.86989 6.13857,-26.04382 -1.17171,-51.84598 -19.97762,-70.5125 -16.74316,-16.61906 -33.64096,-22.96289 -57.88924,-21.73298 -28.52638,1.44691 -51.73338,16.2286 -63.72688,40.59085 -10.78852,21.91461 -10.7249,45.10188 0.18615,67.82938 14.80359,30.83559 49.61629,47.14055 84.75308,39.69514 z M 335.79962,291.67283 c 11.93699,-6.96654 27.80759,-13.46008 40.2933,-16.48622 13.25918,-3.2136 38.24087,-2.83983 51.86624,0.77602 10.56494,2.80369 35.02209,13.77254 42.3621,18.99909 3.59819,2.56213 6.09719,2.66137 67.01858,2.66137 h 63.28103 l -0.0107,-15.78813 c -0.005,-8.68347 -0.6403,-19.67191 -1.41049,-24.41875 -4.02133,-24.78445 -22.47619,-46.44524 -48.05506,-56.40304 l -8.97338,-3.49356 -138.03211,-0.37224 c -151.5619,-0.40872 -147.01237,-0.62208 -163.42741,7.66421 -10.09864,5.09777 -22.1085,16.07509 -28.66757,26.20289 -8.27274,12.77384 -10.68047,22.43488 -11.49346,46.11764 l -0.70342,20.49098 h 62.87838 62.87839 z"
     id="path38613"
     transform="scale(0.04)" />
  <path
     style="fill:#ffffff;stroke-width:1.34367"
     d="m 501.18922,246.5636 v -24.18608 h 24.18608 24.18607 v 24.18608 24.18607 H 525.3753 501.18922 Z"
     id="path38615"
     transform="scale(0.04)" />
</svg>
