<?xml version="1.0" encoding="UTF-8" standalone="no"?>
<!-- Uploaded to: SVG Repo, www.svgrepo.com, Generator: SVG Repo Mixer Tools -->

<svg
   fill="#000000"
   width="800px"
   height="800px"
   viewBox="0 0 32 32"
   version="1.1"
   id="svg48"
   sodipodi:docname="linkedin_light.svg"
   inkscape:version="1.2.2 (b0a8486541, 2022-12-01)"
   xmlns:inkscape="http://www.inkscape.org/namespaces/inkscape"
   xmlns:sodipodi="http://sodipodi.sourceforge.net/DTD/sodipodi-0.dtd"
   xmlns="http://www.w3.org/2000/svg"
   xmlns:svg="http://www.w3.org/2000/svg"
   xmlns:rdf="http://www.w3.org/1999/02/22-rdf-syntax-ns#"
   xmlns:cc="http://creativecommons.org/ns#"
   xmlns:dc="http://purl.org/dc/elements/1.1/">
  <defs
     id="defs52" />
  <sodipodi:namedview
     id="namedview50"
     pagecolor="#505050"
     bordercolor="#eeeeee"
     borderopacity="1"
     inkscape:showpageshadow="0"
     inkscape:pageopacity="0"
     inkscape:pagecheckerboard="0"
     inkscape:deskcolor="#505050"
     showgrid="false"
     inkscape:zoom="0.52625"
     inkscape:cx="-16.152019"
     inkscape:cy="342.99287"
     inkscape:window-width="1854"
     inkscape:window-height="1011"
     inkscape:window-x="66"
     inkscape:window-y="32"
     inkscape:window-maximized="1"
     inkscape:current-layer="svg48" />
  <title
     id="title44">linkedin</title>
  <path
     d="M28.778 1.004h-25.56c-0.008-0-0.017-0-0.027-0-1.199 0-2.172 0.964-2.186 2.159v25.672c0.014 1.196 0.987 2.161 2.186 2.161 0.010 0 0.019-0 0.029-0h25.555c0.008 0 0.018 0 0.028 0 1.2 0 2.175-0.963 2.194-2.159l0-0.002v-25.67c-0.019-1.197-0.994-2.161-2.195-2.161-0.010 0-0.019 0-0.029 0h0.001zM9.9 26.562h-4.454v-14.311h4.454zM7.674 10.293c-1.425 0-2.579-1.155-2.579-2.579s1.155-2.579 2.579-2.579c1.424 0 2.579 1.154 2.579 2.578v0c0 0.001 0 0.002 0 0.004 0 1.423-1.154 2.577-2.577 2.577-0.001 0-0.002 0-0.003 0h0zM26.556 26.562h-4.441v-6.959c0-1.66-0.034-3.795-2.314-3.795-2.316 0-2.669 1.806-2.669 3.673v7.082h-4.441v-14.311h4.266v1.951h0.058c0.828-1.395 2.326-2.315 4.039-2.315 0.061 0 0.121 0.001 0.181 0.003l-0.009-0c4.5 0 5.332 2.962 5.332 6.817v7.855z"
     id="path46" />
  <path
     style="fill:#ffffff;stroke-width:1.90024"
     d="M 65.224085,771.62235 C 53.921459,768.07265 44.744279,761.95352 38.053351,753.50554 25.807224,738.04355 26.603325,762.62221 26.603325,400 26.603325,34.622108 25.656158,61.71093 39.00112,45.425163 42.922945,40.639091 50.119021,35.117938 56.55326,31.95837 L 67.458432,26.603325 H 400.13437 732.81028 l 11.21285,5.734462 c 12.43574,6.359871 23.61419,19.188925 27.22696,31.247252 3.06111,10.217116 3.06111,662.612811 0,672.829911 -3.61266,12.058 -14.79126,24.88738 -27.22657,31.24726 l -11.21244,5.73446 -329.82596,0.35888 C 135.40285,774.04669 71.661666,773.64412 65.224085,771.62235 Z M 248.93112,484.56057 V 304.98812 h -57.00713 -57.00713 v 179.57245 179.57245 h 57.00713 57.00713 z m 180.52256,79.72986 c 0,-83.59295 0.48861,-102.20809 3.00217,-114.37701 5.27221,-25.52438 15.3653,-39.84929 34.05246,-48.32984 7.69971,-3.49425 12.93247,-4.32338 27.59803,-4.37286 15.65364,-0.0528 19.34616,0.58143 27.35082,4.69803 11.48194,5.90487 18.84161,14.81085 24.38522,29.5086 4.23013,11.21537 4.28245,12.5352 4.83713,122.02683 l 0.56074,110.68884 h 56.92144 56.92145 l -0.002,-107.83848 c -8.8e-4,-60.12095 -0.87736,-117.07406 -1.98079,-128.71026 -8.17199,-86.17742 -41.66514,-124.18717 -114.62482,-130.08207 -37.55907,-3.03466 -62.71599,2.44213 -87.56758,19.06389 -13.29074,8.88939 -21.83278,16.97701 -30.92213,29.27713 l -4.21261,5.70071 -0.0602,-23.30706 -0.0602,-23.30704 -54.63183,0.50419 -54.63183,0.50421 -0.48475,179.09739 -0.48475,179.09739 h 57.01681 57.01682 z M 216.06672,253.37267 c 15.00264,-5.6132 30.74263,-21.35319 36.35584,-36.35583 9.3287,-24.93315 3.74398,-51.41563 -14.74085,-69.90045 -13.32144,-13.32145 -26.74242,-18.85036 -45.75772,-18.85036 -19.0153,0 -32.43627,5.52891 -45.75772,18.85036 -18.48482,18.48482 -24.06954,44.9673 -14.74085,69.90045 5.47515,14.63365 21.35636,30.71321 35.81626,36.2636 14.36858,5.51532 34.23025,5.55285 48.82504,0.0922 z"
     id="path974"
     transform="scale(0.04)" />
  <path
     style="fill:#000000;stroke-width:1.90024"
     d="m 181.29541,255.39885 c -4.27802,-0.77951 -10.92061,-2.73027 -14.76133,-4.33502 -3.84071,-1.60475 -7.40078,-2.94927 -7.91127,-2.98781 -0.51049,-0.0385 -5.0601,-4.22383 -10.11025,-9.30063 -22.90166,-23.02251 -26.2274,-56.41457 -8.21162,-82.4487 7.13932,-10.31685 12.37913,-14.78182 24.13743,-20.56812 7.99629,-3.93499 12.18343,-4.64218 27.48562,-4.64218 21.28424,0 31.01584,3.76243 44.43155,17.17814 11.97106,11.97106 16.95547,23.49349 17.90351,41.38745 0.89006,16.79978 -2.07631,27.25089 -11.505,40.53434 -13.13273,18.50182 -39.2938,29.22126 -61.45864,25.18253 z"
     id="path1055"
     transform="scale(0.04)" />
  <path
     style="fill:#000000;stroke-width:1.90024"
     d="M 136.8171,484.56057 V 306.88836 h 55.10689 55.10689 V 484.56057 662.23278 H 191.92399 136.8171 Z"
     id="path1057"
     transform="scale(0.04)" />
  <path
     style="fill:#000000;stroke-width:1.90024"
     d="m 316.92319,553.44418 c -0.2935,-60.87886 -0.28868,-141.25891 0.0107,-178.62233 l 0.54436,-67.93349 h 53.13735 53.13735 l 0.0892,25.17815 0.0892,25.17815 5.03641,-6.65084 c 17.7126,-23.39037 42.27451,-40.98882 67.94427,-48.68165 14.64732,-4.38958 52.59056,-4.33994 73.15915,0.0957 39.80929,8.58491 66.66691,32.13414 80.33454,70.43869 11.46601,32.13438 14.00777,71.46303 13.23279,204.75059 l -0.49442,85.03563 h -55.0012 -55.00119 l -0.6164,-109.73872 c -0.67352,-119.89209 -0.57666,-118.79922 -12.10046,-136.55953 -5.3933,-8.31207 -19.101,-18.49417 -22.92327,-17.02742 -1.26041,0.48366 -2.63261,-0.14146 -3.04933,-1.38916 -0.52244,-1.56421 -6.90286,-2.26854 -20.55032,-2.26854 -17.8144,0 -20.87175,0.52991 -30.58905,5.30182 -12.27436,6.02761 -21.30614,15.3646 -26.73582,27.6393 -7.96759,18.01204 -8.88746,32.04593 -8.95731,136.65508 l -0.0663,99.28741 h -55.0483 -55.04831 z"
     id="path1059"
     transform="scale(0.04)" />
  <metadata
     id="metadata1077">
    <rdf:RDF>
      <cc:Work
         rdf:about="">
        <dc:title>linkedin</dc:title>
      </cc:Work>
    </rdf:RDF>
  </metadata>
</svg>
