<?xml version="1.0" encoding="UTF-8" standalone="no"?>
<!-- Uploaded to: SVG Repo, www.svgrepo.com, Generator: SVG Repo Mixer Tools -->

<svg
   fill="#000000"
   width="800px"
   height="800px"
   viewBox="0 0 32 32"
   version="1.1"
   id="svg48"
   sodipodi:docname="linkedin_light.svg"
   inkscape:version="1.2.2 (b0a8486541, 2022-12-01)"
   xmlns:inkscape="http://www.inkscape.org/namespaces/inkscape"
   xmlns:sodipodi="http://sodipodi.sourceforge.net/DTD/sodipodi-0.dtd"
   xmlns="http://www.w3.org/2000/svg"
   xmlns:svg="http://www.w3.org/2000/svg"
   xmlns:rdf="http://www.w3.org/1999/02/22-rdf-syntax-ns#"
   xmlns:cc="http://creativecommons.org/ns#"
   xmlns:dc="http://purl.org/dc/elements/1.1/">
  <defs
     id="defs52" />
  <sodipodi:namedview
     id="namedview50"
     pagecolor="#505050"
     bordercolor="#eeeeee"
     borderopacity="1"
     inkscape:showpageshadow="0"
     inkscape:pageopacity="0"
     inkscape:pagecheckerboard="0"
     inkscape:deskcolor="#505050"
     showgrid="false"
     inkscape:zoom="0.52625"
     inkscape:cx="-15.2019"
     inkscape:cy="344.89311"
     inkscape:window-width="1854"
     inkscape:window-height="1011"
     inkscape:window-x="66"
     inkscape:window-y="32"
     inkscape:window-maximized="1"
     inkscape:current-layer="svg48" />
  <title
     id="title44">linkedin</title>
  <path
     d="M 29.603927,0.16801973 H 2.4648445 c -0.0085,0 -0.01805,0 -0.028668,0 -1.2730736,0 -2.30618503,1.02008897 -2.32104994,2.28461837 V 29.618326 c 0.0148648,1.265588 1.04797624,2.286735 2.32104984,2.286735 0.010618,0 0.020174,0 0.030791,0 H 29.600741 c 0.0085,0 0.01911,0 0.02973,0 1.274135,0 2.30937,-1.01903 2.329544,-2.284618 v -0.0022 -27.1635719 c -0.02017,-1.2666457 -1.055409,-2.28673467 -2.330606,-2.28673467 -0.01062,0 -0.02017,0 -0.03079,0 h 0.001 z M 9.5596548,27.213075 H 4.8304891 V 12.069411 H 9.5596548 Z M 7.1961337,9.9974869 c -1.5130357,0 -2.7383292,-1.222202 -2.7383292,-2.7290554 0,-1.5068534 1.2263553,-2.7290554 2.7383292,-2.7290554 1.511974,0 2.7383292,1.2211438 2.7383292,2.7279972 v 0 c 0,0.00106 0,0.00212 0,0.00423 0,1.5057952 -1.2252934,2.726939 -2.7362056,2.726939 -0.00106,0 -0.00212,0 -0.00319,0 v 0 z M 27.244653,27.213075 h -4.715362 v -7.363899 c 0,-1.756585 -0.0361,-4.015806 -2.456957,-4.015806 -2.459082,0 -2.833891,1.911079 -2.833891,3.886708 v 7.494056 H 12.523081 V 12.070468 h 4.529551 v 2.064517 h 0.06158 c 0.879153,-1.476166 2.469698,-2.449696 4.288527,-2.449696 0.06477,0 0.128475,0.001 0.192182,0.0032 h -0.0096 c 4.778008,0 5.661408,3.134339 5.661408,7.213638 v 8.312031 z"
     id="path46"
     style="stroke-width:1.05998" />
  <path
     style="fill:#ffffff;stroke-width:0.0805686"
     d="M 1.8181819,31.766328 C 1.3381461,31.616078 0.94838045,31.357071 0.66420885,30.999491 0.14410141,30.345025 0.17791276,31.385375 0.17791276,16.03654 0.17791276,0.57106525 0.13768546,1.7176631 0.70446172,1.0283299 0.87102625,0.82574815 1.1766521,0.59205242 1.4499218,0.4583163 L 1.9130773,0.23165147 H 16.042216 30.171354 l 0.476223,0.24272455 c 0.528161,0.26919643 1.002923,0.81221618 1.156361,1.32261318 0.13001,0.4324634 0.13001,28.0466398 0,28.4791028 -0.153434,0.510382 -0.628202,1.053417 -1.156345,1.322613 l -0.476205,0.242725 -14.008097,0.0152 C 4.7987568,31.868943 2.0915936,31.851904 1.8181819,31.766328 Z M 9.6204362,19.615765 v -7.600824 h -2.42116 -2.42116 v 7.600824 7.600824 h 2.42116 2.42116 z m 7.6670058,3.374753 c 0,-3.538268 0.02075,-4.326197 0.127506,-4.841275 0.223916,-1.080379 0.652582,-1.686715 1.446248,-2.045674 0.327016,-0.147902 0.549257,-0.182996 1.172121,-0.185091 0.664829,-0.0023 0.821654,0.02461 1.161621,0.198855 0.487652,0.249938 0.800225,0.626904 1.03567,1.249021 0.179658,0.474716 0.18188,0.530582 0.205438,5.165071 l 0.02381,4.685164 h 2.417521 2.417521 l -8.6e-5,-4.564516 c -3.7e-5,-2.544759 -0.03727,-4.955434 -0.08412,-5.447963 -0.347073,-3.647661 -1.769567,-5.256513 -4.868251,-5.506028 -1.595178,-0.12845 -2.663622,0.103369 -3.719098,0.806923 -0.564473,0.376264 -0.927265,0.718592 -1.3133,1.239223 l -0.178914,0.241296 -0.0026,-0.986526 -0.0026,-0.986525 -2.320278,0.02134 -2.320278,0.02134 -0.02058,7.580716 -0.02059,7.580716 h 2.421571 2.421571 z M 8.2246463,9.8301953 C 8.8618262,9.5926034 9.530322,8.9263715 9.7687217,8.2913496 10.164923,7.2359956 9.927733,6.1150626 9.1426604,5.3326493 8.5768831,4.7687877 8.0068783,4.5347636 7.1992762,4.5347636 c -0.8076022,0 -1.3776066,0.2340241 -1.9433843,0.7978857 -0.7850721,0.7824133 -1.0222617,1.9033463 -0.6260613,2.9587003 0.2325361,0.6194035 0.9070298,1.3000085 1.5211588,1.5349418 0.6102505,0.2334486 1.453799,0.2350376 2.0736569,0.0039 z"
     id="path974" />
  <path
     style="fill:#000000;stroke-width:0.0805686"
     d="M 6.7478679,9.9159581 C 6.5661753,9.8829635 6.2840567,9.800393 6.1209368,9.7324682 5.9578173,9.6645434 5.8066169,9.6076335 5.7849358,9.6060022 5.7632547,9.6043726 5.5700274,9.4272187 5.3555416,9.2123312 4.3828811,8.2378495 4.241633,6.8244524 5.0067844,5.7224968 5.3099998,5.285812 5.5325407,5.0968217 6.0319295,4.8519029 6.3715414,4.6853453 6.5493741,4.6554118 7.1992762,4.6554118 c 0.9039667,0 1.3172792,0.1592537 1.8870602,0.7271051 0.508425,0.5067031 0.7201188,0.994417 0.7603833,1.7518208 0.037802,0.71109 -0.088183,1.1534577 -0.4886309,1.7157108 C 8.8003262,9.6331814 7.6892347,10.086907 6.7478679,9.9159581 Z"
     id="path1055" />
  <path
     style="fill:#000000;stroke-width:0.0805686"
     d="m 4.8588217,19.615765 v -7.520393 h 2.3404545 2.3404546 v 7.520393 7.520392 H 7.1992762 4.8588217 Z"
     id="path1057" />
  <path
     style="fill:#000000;stroke-width:0.0805686"
     d="m 12.508139,22.531425 c -0.01247,-2.57684 -0.01226,-5.979114 4.55e-4,-7.560609 l 0.02312,-2.875444 h 2.256806 2.256805 l 0.0038,1.065725 0.0038,1.065724 0.213902,-0.281513 c 0.752275,-0.990052 1.795448,-1.734948 2.885673,-2.060565 0.622089,-0.185799 2.233583,-0.183697 3.107156,0.004 1.690747,0.363377 2.831421,1.360153 3.411902,2.981482 0.486975,1.360163 0.594927,3.02484 0.562012,8.666549 l -0.02099,3.599332 h -2.33594 -2.335966 l -0.02618,-4.644948 c -0.0286,-5.074714 -0.02449,-5.028455 -0.513921,-5.780203 -0.229059,-0.351827 -0.811242,-0.782808 -0.973578,-0.720725 -0.05353,0.02048 -0.11181,-0.006 -0.129508,-0.05879 -0.02219,-0.06621 -0.293173,-0.09602 -0.872796,-0.09602 -0.756599,0 -0.886448,0.02243 -1.299154,0.224412 -0.521307,0.255133 -0.904897,0.650343 -1.135501,1.169898 -0.338394,0.762402 -0.377461,1.356419 -0.380428,5.784246 l -0.0028,4.202572 h -2.337966 -2.337967 z"
     id="path1059" />
  <metadata
     id="metadata1077">
    <rdf:RDF>
      <cc:Work
         rdf:about="">
        <dc:title>linkedin</dc:title>
      </cc:Work>
    </rdf:RDF>
  </metadata>
</svg>
