<?xml version="1.0" encoding="UTF-8" standalone="no"?>
<!-- Uploaded to: SVG Repo, www.svgrepo.com, Generator: SVG Repo Mixer Tools -->

<svg
   fill="#000000"
   width="800px"
   height="800px"
   viewBox="0 0 32 32"
   version="1.1"
   id="svg91"
   sodipodi:docname="linkedin_dark.svg"
   inkscape:version="1.2.2 (b0a8486541, 2022-12-01)"
   xmlns:inkscape="http://www.inkscape.org/namespaces/inkscape"
   xmlns:sodipodi="http://sodipodi.sourceforge.net/DTD/sodipodi-0.dtd"
   xmlns="http://www.w3.org/2000/svg"
   xmlns:svg="http://www.w3.org/2000/svg">
  <defs
     id="defs95" />
  <sodipodi:namedview
     id="namedview93"
     pagecolor="#505050"
     bordercolor="#eeeeee"
     borderopacity="1"
     inkscape:showpageshadow="0"
     inkscape:pageopacity="0"
     inkscape:pagecheckerboard="0"
     inkscape:deskcolor="#505050"
     showgrid="false"
     inkscape:zoom="0.74422989"
     inkscape:cx="183.41107"
     inkscape:cy="472.3003"
     inkscape:window-width="1854"
     inkscape:window-height="1011"
     inkscape:window-x="66"
     inkscape:window-y="32"
     inkscape:window-maximized="1"
     inkscape:current-layer="svg91" />
  <title
     id="title87">linkedin</title>
  <path
     d="M 29.48076,0.21423705 H 2.5137688 c -0.00844,0 -0.017935,0 -0.028487,0 -1.2650008,0 -2.29156115,1.01545805 -2.30633181,2.27424685 V 29.530848 c 0.0147711,1.259842 1.04133141,2.276354 2.30633221,2.276354 0.01055,0 0.020046,0 0.030597,0 H 29.477594 c 0.0084,0 0.019,0 0.02954,0 1.266056,0 2.294727,-1.014405 2.314773,-2.274247 V 29.5308 2.4905424 C 31.801864,1.2296468 30.77319,0.21418881 29.50608,0.21418881 c -0.01056,0 -0.02004,0 -0.0306,0 h 10e-4 z M 9.5635901,27.136516 H 4.8644126 V 12.061598 H 9.5635901 Z M 7.2150564,9.9990814 c -1.5034414,0 -2.7209651,-1.2166537 -2.7209651,-2.7166663 0,-1.5000128 1.2185788,-2.7166664 2.7209651,-2.7166664 1.5023864,0 2.7209652,1.2156002 2.7209652,2.7156129 v 0 c 0,0.00106 0,0.0021 0,0.00422 0,1.4989595 -1.2175238,2.7145604 -2.7188551,2.7145604 -0.00106,0 -0.00212,0 -0.00316,0 v 0 z M 27.136446,27.136516 h -4.685462 v -7.330469 c 0,-1.748611 -0.03587,-3.997576 -2.441378,-3.997576 -2.443488,0 -2.815919,1.902404 -2.815919,3.869063 V 27.13757 H 12.508225 V 12.062653 h 4.500829 v 2.055143 h 0.0612 c 0.873579,-1.469464 2.454039,-2.438574 4.261334,-2.438574 0.06436,0 0.12766,0.001 0.190963,0.0032 h -0.0094 c 4.747709,0 5.625509,3.120111 5.625509,7.180889 v 8.274298 z"
     id="path89"
     style="stroke-width:1.05422" />
  <path
     style="fill:#000000;fill-opacity:0;stroke-width:0.950119"
     d="m 172.86668,251.98358 c -17.5633,-5.98756 -33.84442,-22.01149 -39.95884,-39.32763 -2.49313,-7.06059 -3.4281,-23.13543 -1.86703,-32.09975 3.14875,-18.08144 16.49897,-34.47591 36.32682,-44.61038 l 8.51921,-4.35437 h 16.12617 c 15.5226,0 16.31168,0.0935 21.08271,2.49816 19.58535,9.87129 33.03387,23.83313 37.79033,39.23279 2.48704,8.0521 3.33481,21.39564 1.93639,30.47808 -3.22093,20.91924 -21.82012,42.03636 -42.70874,48.49056 -9.02803,2.78949 -28.63755,2.62763 -37.24702,-0.30746 z"
     id="path5511"
     transform="scale(0.04)" />
  <path
     style="fill:#000000;fill-opacity:0;stroke-width:0.950119"
     d="M 317.33967,485.03563 V 306.4133 h 53.20665 53.20665 v 24.17196 c 0,13.29457 0.38316,24.40876 0.85148,24.69819 0.46831,0.28944 3.86836,-3.02727 7.55566,-7.37046 18.25489,-21.50198 34.91075,-34.00007 55.35829,-41.53932 17.4659,-6.43988 20.77498,-6.88346 45.97329,-6.16269 12.54156,0.35874 25.79572,1.02522 29.45368,1.48107 8.1707,1.01821 21.44536,4.81103 30.36877,8.67694 14.56914,6.31181 31.59422,19.8967 41.45421,33.07771 7.69453,10.28619 15.86742,29.93775 20.36224,48.96063 5.22532,22.11446 5.58817,32.17406 6.75949,187.40265 l 0.6327,83.84798 h -53.8267 -53.82672 l -0.10469,-11.1639 c -0.0576,-6.14014 -0.23083,-16.50831 -0.38498,-23.04038 -0.15416,-6.53206 -0.55054,-45.00442 -0.88086,-85.49411 -0.62114,-76.13758 -1.37028,-97.28904 -3.81986,-107.8514 -2.92621,-12.61762 -11.22242,-25.4376 -20.87502,-32.25776 -9.38676,-6.63235 -15.10314,-8.31632 -29.9916,-8.83516 -23.68565,-0.82541 -37.63199,3.45493 -49.56873,15.21338 -9.94304,9.79451 -15.0556,20.31019 -18.92502,38.92556 -1.81937,8.7528 -2.10032,14.23598 -2.73917,53.45864 -0.39153,24.038 -0.80746,63.80047 -0.92429,88.36104 -0.11683,24.56057 -0.35638,46.57957 -0.53234,48.93112 -0.17596,2.35154 -0.35359,8.65796 -0.39475,14.01425 l -0.0748,9.73872 h -54.15677 -54.15677 z"
     id="path5996"
     transform="scale(0.04)" />
  <path
     style="fill:#000000;fill-opacity:0;stroke-width:0.950119"
     d="M 136.8171,485.03563 V 306.4133 h 55.10689 55.10689 V 485.03563 663.65796 H 191.92399 136.8171 Z"
     id="path5998"
     transform="scale(0.04)" />
  <path
     style="fill:#000000;fill-opacity:0;stroke-width:0.950119"
     d="m 172.86668,251.98358 c -17.5633,-5.98756 -33.84442,-22.01149 -39.95884,-39.32763 -2.49313,-7.06059 -3.4281,-23.13543 -1.86703,-32.09975 3.14875,-18.08144 16.49897,-34.47591 36.32682,-44.61038 l 8.51921,-4.35437 h 16.12617 c 15.5226,0 16.31168,0.0935 21.08271,2.49816 19.58535,9.87129 33.03387,23.83313 37.79033,39.23279 2.48704,8.0521 3.33481,21.39564 1.93639,30.47808 -3.22093,20.91924 -21.82012,42.03636 -42.70874,48.49056 -9.02803,2.78949 -28.63755,2.62763 -37.24702,-0.30746 z"
     id="path6000"
     transform="scale(0.04)" />
  <path
     style="fill:#000000;fill-opacity:0;stroke-width:0.950119"
     d="M 317.33967,485.03563 V 306.4133 h 53.20665 53.20665 v 24.17196 c 0,13.29457 0.38316,24.40876 0.85148,24.69819 0.46831,0.28944 3.86836,-3.02727 7.55566,-7.37046 18.25489,-21.50198 34.91075,-34.00007 55.35829,-41.53932 17.4659,-6.43988 20.77498,-6.88346 45.97329,-6.16269 12.54156,0.35874 25.79572,1.02522 29.45368,1.48107 8.1707,1.01821 21.44536,4.81103 30.36877,8.67694 14.56914,6.31181 31.59422,19.8967 41.45421,33.07771 7.69453,10.28619 15.86742,29.93775 20.36224,48.96063 5.22532,22.11446 5.58817,32.17406 6.75949,187.40265 l 0.6327,83.84798 h -53.8267 -53.82672 l -0.10469,-11.1639 c -0.0576,-6.14014 -0.23083,-16.50831 -0.38498,-23.04038 -0.15416,-6.53206 -0.55054,-45.00442 -0.88086,-85.49411 -0.62114,-76.13758 -1.37028,-97.28904 -3.81986,-107.8514 -2.92621,-12.61762 -11.22242,-25.4376 -20.87502,-32.25776 -9.38676,-6.63235 -15.10314,-8.31632 -29.9916,-8.83516 -23.68565,-0.82541 -37.63199,3.45493 -49.56873,15.21338 -9.94304,9.79451 -15.0556,20.31019 -18.92502,38.92556 -1.81937,8.7528 -2.10032,14.23598 -2.73917,53.45864 -0.39153,24.038 -0.80746,63.80047 -0.92429,88.36104 -0.11683,24.56057 -0.35638,46.57957 -0.53234,48.93112 -0.17596,2.35154 -0.35359,8.65796 -0.39475,14.01425 l -0.0748,9.73872 h -54.15677 -54.15677 z"
     id="path6140"
     transform="scale(0.04)" />
  <path
     style="fill:#000000;fill-opacity:0;stroke-width:0.950119"
     d="M 136.8171,485.03563 V 306.4133 h 55.10689 55.10689 V 485.03563 663.65796 H 191.92399 136.8171 Z"
     id="path6142"
     transform="scale(0.04)" />
  <path
     style="fill:#000000;fill-opacity:0;stroke-width:0.950119"
     d="m 172.86668,251.98358 c -17.5633,-5.98756 -33.84442,-22.01149 -39.95884,-39.32763 -2.49313,-7.06059 -3.4281,-23.13543 -1.86703,-32.09975 3.14875,-18.08144 16.49897,-34.47591 36.32682,-44.61038 l 8.51921,-4.35437 h 16.12617 c 15.5226,0 16.31168,0.0935 21.08271,2.49816 19.58535,9.87129 33.03387,23.83313 37.79033,39.23279 2.48704,8.0521 3.33481,21.39564 1.93639,30.47808 -3.22093,20.91924 -21.82012,42.03636 -42.70874,48.49056 -9.02803,2.78949 -28.63755,2.62763 -37.24702,-0.30746 z"
     id="path6144"
     transform="scale(0.04)" />
  <path
     style="fill:#ffffff;fill-opacity:1;stroke-width:1.34367"
     d="M 122.27405,489.76802 V 301.6541 h 57.77784 57.77785 v 188.11392 188.11392 h -57.77785 -57.77784 z"
     id="path29053"
     transform="scale(0.04)" />
  <path
     style="fill:#ffffff;fill-opacity:1;stroke-width:1.34367"
     d="M 313.07531,489.76802 V 301.6541 h 55.76234 55.76234 v 26.20159 c 0,14.41087 0.51904,26.20158 1.15343,26.20158 0.63439,0 3.45196,-3.47675 6.26128,-7.72611 2.80931,-4.24936 9.39492,-12.0025 14.6347,-17.22921 31.93536,-31.85572 72.76168,-42.56738 127.09805,-33.34689 53.54069,9.08547 85.36646,41.33016 97.43914,98.72172 5.57407,26.49816 6.02351,38.69593 6.02351,163.4743 V 677.88194 H 619.43226 561.65441 V 572.70445 c 0,-61.72403 -0.55578,-109.88154 -1.34527,-116.56344 -5.15371,-43.61963 -26.97086,-63.88451 -65.95813,-61.26527 -33.28601,2.23621 -52.17447,17.93156 -60.43126,50.21532 -4.35323,17.02094 -5.28209,41.46091 -5.28549,139.06984 l -0.003,93.72104 h -57.77785 -57.77784 z"
     id="path29193"
     transform="scale(0.04)" />
  <path
     style="fill:#ffffff;fill-opacity:1;stroke-width:1.34367"
     d="m 164.29669,247.18297 c -26.46047,-7.1268 -45.74399,-28.3452 -50.32447,-55.37396 -3.39527,-20.03502 4.18398,-42.37404 19.43485,-57.28213 27.05732,-26.44917 68.82054,-25.99149 94.77622,1.03866 20.65873,21.51392 24.96293,51.13562 11.33939,78.03837 -4.65368,9.18975 -17.72198,22.41277 -27.07986,27.40047 -14.51701,7.73748 -33.37371,10.15737 -48.14613,6.17859 z"
     id="path29195"
     transform="scale(0.04)" />
</svg>
