<?xml version="1.0" encoding="UTF-8" standalone="no"?>
<!-- Uploaded to: SVG Repo, www.svgrepo.com, Generator: SVG Repo Mixer Tools -->

<svg
   fill="#000000"
   width="800px"
   height="800px"
   viewBox="0 0 56 56"
   version="1.1"
   id="svg383"
   sodipodi:docname="phone_dark.svg"
   inkscape:version="1.2.2 (b0a8486541, 2022-12-01)"
   xmlns:inkscape="http://www.inkscape.org/namespaces/inkscape"
   xmlns:sodipodi="http://sodipodi.sourceforge.net/DTD/sodipodi-0.dtd"
   xmlns="http://www.w3.org/2000/svg"
   xmlns:svg="http://www.w3.org/2000/svg">
  <defs
     id="defs387" />
  <sodipodi:namedview
     id="namedview385"
     pagecolor="#505050"
     bordercolor="#eeeeee"
     borderopacity="1"
     inkscape:showpageshadow="0"
     inkscape:pageopacity="0"
     inkscape:pagecheckerboard="0"
     inkscape:deskcolor="#505050"
     showgrid="false"
     inkscape:zoom="0.74422989"
     inkscape:cx="190.12942"
     inkscape:cy="436.02119"
     inkscape:window-width="1854"
     inkscape:window-height="1011"
     inkscape:window-x="66"
     inkscape:window-y="32"
     inkscape:window-maximized="1"
     inkscape:current-layer="svg383" />
  <path
     d="M 47.776496,8.2898681 C 37.001097,-2.4855306 19.090336,-2.4888368 8.3187185,8.2827803 -2.4722083,19.073707 -2.4302796,36.984474 8.3451191,47.759873 19.139913,58.554667 36.99249,58.538405 47.783417,47.747479 58.555034,36.975862 58.571207,19.084579 47.776496,8.2898681 Z M 22.23022,33.874766 C 15.149824,26.794369 10.835015,18.186493 15.863097,13.158411 l 0.696149,-0.696149 c 1.527782,-1.527782 3.287875,-1.624193 4.661507,0.174865 1.0447,1.431514 2.050687,2.824314 3.598449,5.106923 1.218878,1.721704 0.909595,2.80472 -0.366768,4.11971 l -1.121653,1.160446 c -0.328726,0.328725 -0.289919,0.908973 -0.0771,1.276416 0.599812,1.025241 2.012043,2.708274 3.907914,4.604145 1.89587,1.89587 3.694852,3.308203 4.604144,3.907912 0.367443,0.212817 0.889773,0.348333 1.295812,-0.05771 l 1.14105,-1.14105 c 1.334295,-1.295673 2.417403,-1.566248 4.119712,-0.366765 2.379337,1.605712 3.733434,2.611774 5.126236,3.617761 1.799139,1.373713 1.683419,3.153116 0.174946,4.661589 l -0.696149,0.696149 c -5.047389,5.047389 -13.655356,0.693875 -20.697122,-6.347891 z"
     id="path381"
     style="stroke-width:1.16708" />
  <path
     style="fill:#ffffff;stroke-width:1.34367"
     d="M 522.68796,604.47669 C 496.70784,600.75612 475.63437,594.18057 450.80157,582.04603 348.77641,532.19143 235.8479,410.39647 205.4781,317.4613 c -6.74349,-20.63587 -8.63424,-32.25277 -8.58683,-52.75814 0.0507,-21.93934 2.68566,-33.53689 11.43064,-50.31163 9.45911,-18.14458 30.46103,-40.21377 45.66168,-47.98211 14.57436,-7.44826 31.03425,-4.12879 43.35151,8.74271 9.54464,9.97413 59.74216,82.04587 64.26357,92.26727 1.62011,3.66252 2.78562,9.22586 2.82384,13.47906 0.0981,10.90801 -4.68876,19.25472 -20.78108,36.2361 -13.75214,14.51189 -13.77024,14.53997 -13.77024,21.35992 0,5.56056 0.85091,8.07675 4.5813,13.54728 20.4696,30.01809 68.56523,79.26915 103.56627,106.05433 14.78738,11.31631 19.90719,14.20421 25.18197,14.20421 5.07029,0 8.16481,-2.24396 23.20812,-16.82913 15.87209,-15.38872 21.79141,-18.6797 33.59177,-18.67605 12.9683,0.004 16.32795,1.9613 74.57373,43.44618 14.04136,10.0008 28.08714,20.53371 31.21284,23.40647 12.75584,11.72359 16.25135,28.61865 9.02268,43.60983 -5.03187,10.43533 -29.98924,35.44003 -42.92286,43.00426 -19.73763,11.54355 -47.71752,17.29117 -69.19905,14.21483 z"
     id="path389"
     transform="scale(0.07)" />
</svg>
