<?xml version="1.0" encoding="UTF-8" standalone="no"?>
<!-- Uploaded to: SVG Repo, www.svgrepo.com, Generator: SVG Repo Mixer Tools -->

<svg
   fill="#000000"
   version="1.1"
   id="Layer_1"
   viewBox="0 0 24 24"
   xml:space="preserve"
   sodipodi:docname="twitter_light.svg"
   inkscape:version="1.2.2 (b0a8486541, 2022-12-01)"
   xmlns:inkscape="http://www.inkscape.org/namespaces/inkscape"
   xmlns:sodipodi="http://sodipodi.sourceforge.net/DTD/sodipodi-0.dtd"
   xmlns="http://www.w3.org/2000/svg"
   xmlns:svg="http://www.w3.org/2000/svg"><defs
   id="defs22223"><clipPath
     clipPathUnits="userSpaceOnUse"
     id="clipPath26559"><rect
       style="fill:#c58fbd;fill-opacity:0.420724"
       id="rect26561"
       width="20.283413"
       height="20.177042"
       x="1.8621192"
       y="1.9086688" /></clipPath><clipPath
     clipPathUnits="userSpaceOnUse"
     id="clipPath26563"><rect
       style="fill:#c58fbd;fill-opacity:0.420724"
       id="rect26565"
       width="20.283413"
       height="20.177042"
       x="1.8621192"
       y="1.9086688" /></clipPath><clipPath
     clipPathUnits="userSpaceOnUse"
     id="clipPath26567"><rect
       style="fill:#c58fbd;fill-opacity:0.420724"
       id="rect26569"
       width="20.283413"
       height="20.177042"
       x="1.8621192"
       y="1.9086688" /></clipPath></defs><sodipodi:namedview
   id="namedview22221"
   pagecolor="#505050"
   bordercolor="#eeeeee"
   borderopacity="1"
   inkscape:showpageshadow="0"
   inkscape:pageopacity="0"
   inkscape:pagecheckerboard="0"
   inkscape:deskcolor="#505050"
   showgrid="false"
   inkscape:zoom="24.807663"
   inkscape:cx="4.9984555"
   inkscape:cy="12.516294"
   inkscape:window-width="1854"
   inkscape:window-height="1011"
   inkscape:window-x="66"
   inkscape:window-y="32"
   inkscape:window-maximized="1"
   inkscape:current-layer="Layer_1" />
<style
   type="text/css"
   id="style22214">
	.st0{fill:none;}
</style>
<path
   d="M 20,2 H 4 C 2.9,2 2,2.9 2,4 v 16 c 0,1.1 0.9,2 2,2 h 16 c 1.1,0 2,-0.9 2,-2 V 4 C 22,2.9 21.1,2 20,2 Z m -2.4,6.8 c 0,0.1 0,0.2 0,0.4 0,3.8 -2.9,8.2 -8.2,8.2 -1.6,0 -3.1,-0.5 -4.4,-1.3 0.2,0 0.5,0 0.7,0 1.3,0 2.6,-0.5 3.6,-1.2 C 8,14.9 7,14 6.6,12.9 6.8,12.9 7,13 7.1,13 7.4,13 7.6,13 7.9,12.9 6.6,12.6 5.6,11.5 5.6,10.1 v 0 C 6,10.3 6.4,10.4 6.9,10.5 6.1,9.8 5.6,9 5.6,8 5.6,7.5 5.7,7 6,6.6 c 1.4,1.7 3.5,2.9 5.9,3 0,-0.2 -0.1,-0.4 -0.1,-0.7 0,-1.6 1.3,-2.9 2.9,-2.9 0.8,0 1.6,0.3 2.1,0.9 0.7,-0.1 1.3,-0.4 1.8,-0.7 -0.2,0.7 -0.7,1.2 -1.3,1.6 0.6,-0.1 1.1,-0.2 1.7,-0.5 -0.4,0.6 -0.9,1.1 -1.4,1.5 z"
   id="path22216"
   clip-path="url(#clipPath26567)"
   transform="matrix(1.1832942,0,0,1.1814951,-2.1793139,-2.1913647)" />
<rect
   class="st0"
   width="24"
   height="24"
   id="rect22218"
   clip-path="url(#clipPath26563)" />
<path
   style="fill:#000000;fill-opacity:0.98431373;stroke-width:0.0403101"
   d="M 8.4651263,18.336854 C 6.9283859,18.205875 5.8298298,17.898814 4.5224658,17.234827 3.6868219,16.810418 3.6880015,16.832266 4.5006508,16.830759 c 1.0415954,-0.0019 1.7966004,-0.151746 2.772078,-0.550062 0.5979255,-0.24415 1.5551886,-0.777349 1.5551886,-0.866247 0,-0.01988 -0.096866,-0.03614 -0.2152576,-0.03614 -0.1183917,0 -0.3587408,-0.03646 -0.5341092,-0.08103 C 7.3759148,15.118723 6.7206964,14.691785 6.2651436,14.115674 6.0091452,13.791928 5.646811,13.144426 5.6947941,13.096442 c 0.013985,-0.01398 0.1527836,0.0058 0.3084421,0.04393 0.2927339,0.07174 0.576269,0.06443 0.9804008,-0.02526 0.2095469,-0.04651 0.2200871,-0.09125 0.030429,-0.129185 C 6.9466894,12.972453 6.7563897,12.905154 6.5911781,12.836376 5.4291636,12.352629 4.5868686,11.245372 4.4876045,10.071079 l -0.025734,-0.3044359 0.1171297,0.059243 c 0.245178,0.1240089 1.182974,0.3927309 1.3705656,0.3927309 0.032606,0 -0.073308,-0.131512 -0.2353652,-0.2922486 C 5.14974,9.3665079 4.7645595,8.7564739 4.5879433,8.1426453 4.5102857,7.8727468 4.4951092,7.7248586 4.4948676,7.2356675 4.4946199,6.7340243 4.5080129,6.6083845 4.5893498,6.3493326 4.6755644,6.0747453 4.7708656,5.8584842 4.8720167,5.7078938 c 0.029299,-0.043619 0.1464996,0.056184 0.5155133,0.4389927 0.2626762,0.2724958 0.649919,0.639364 0.8605394,0.815263 1.4513147,1.2120604 3.2863882,1.9831599 5.1705116,2.1726534 0.260911,0.026241 0.484738,0.037355 0.497394,0.024699 0.01266,-0.012656 -0.0058,-0.1624039 -0.04105,-0.3327724 -0.282435,-1.3657099 0.481048,-2.8621079 1.79616,-3.5204074 0.558667,-0.2796491 0.936004,-0.3717953 1.52583,-0.3726096 0.930582,-0.00128 1.698992,0.2784392 2.283651,0.8313158 l 0.231086,0.2185242 0.302194,-0.06242 c 0.410896,-0.084873 0.836352,-0.2451093 1.348776,-0.50798 0.236306,-0.121224 0.429648,-0.2110284 0.429648,-0.1995656 0,0.011463 -0.07124,0.1672828 -0.158312,0.3462665 -0.19131,0.3932544 -0.506988,0.7836321 -0.870051,1.075934 -0.148198,0.1193137 -0.317559,0.258295 -0.376359,0.3088474 l -0.106908,0.091913 0.20155,-0.026255 c 0.319281,-0.041591 1.059561,-0.2371021 1.400777,-0.369952 0.171822,-0.066897 0.312404,-0.1131247 0.312404,-0.1027271 0,0.1092367 -1.033524,1.2300387 -1.387118,1.5042557 l -0.181925,0.1410854 -0.0015,0.4693729 c -0.01041,3.2027013 -1.669437,6.3449563 -4.274937,8.0968903 -1.199976,0.806862 -2.568415,1.318493 -4.030475,1.506913 -0.4796731,0.06182 -1.5363587,0.107818 -1.8542657,0.08072 z"
   id="path27379" /><path
   style="fill:#ffffff;stroke-width:0.0403101"
   d="M 1.9593971,23.701466 C 1.1895016,23.490076 0.62890325,22.950701 0.30743226,22.112043 L 0.22170569,21.888398 0.211145,12.123008 C 0.19956091,1.4112856 0.18534234,2.0697416 0.43962344,1.5422698 0.72432385,0.95169714 1.2152859,0.52330165 1.8433367,0.31744111 L 2.1969018,0.20155063 h 9.8356702 c 9.433504,0 9.84556,0.003031 10.077532,0.0741184 0.808858,0.24787531 1.440981,0.90257717 1.649904,1.70883587 0.05665,0.2186028 0.06328,1.2644545 0.06328,9.9813591 0,6.870417 -0.01294,9.800061 -0.04394,9.950782 -0.169938,0.826117 -0.881945,1.568451 -1.711657,1.784563 -0.209267,0.05451 -1.370612,0.06119 -10.073814,0.05801 -8.1005647,-0.003 -9.8720929,-0.01316 -10.0344739,-0.05775 z m 8.1785989,-5.384693 c 1.313177,-0.131344 2.76808,-0.618802 3.889715,-1.303231 1.159486,-0.707525 2.220051,-1.743993 2.993162,-2.925153 0.374186,-0.571682 0.875176,-1.598651 1.091389,-2.237212 0.352736,-1.041769 0.50235,-1.854969 0.53896,-2.9294301 l 0.02427,-0.7123734 0.282055,-0.2349146 c 0.155131,-0.1292032 0.417241,-0.3800313 0.582468,-0.5573959 0.319306,-0.342763 0.791386,-0.9456231 0.76284,-0.9741691 -0.0094,-0.0094 -0.173508,0.047665 -0.364691,0.1268051 -0.378346,0.156617 -0.975519,0.3243571 -1.294734,0.3636792 -0.188377,0.023205 -0.196281,0.020696 -0.12093,-0.038382 0.490768,-0.3847791 0.852403,-0.7744607 1.057896,-1.1399393 0.148883,-0.2647952 0.273122,-0.567704 0.244559,-0.5962661 -0.01059,-0.010595 -0.244789,0.094634 -0.520433,0.2338414 -0.497843,0.2514243 -1.00449,0.4374144 -1.385378,0.5085719 L 17.720313,5.9383501 17.440192,5.6790004 C 16.906042,5.1844596 16.260866,4.942276 15.388049,4.9086747 c -0.602561,-0.023197 -0.870108,0.01161 -1.336374,0.1738576 -1.537286,0.5349327 -2.538141,2.2159604 -2.219947,3.7286035 0.03365,0.1599482 0.05255,0.2994389 0.04201,0.3099792 C 11.838638,9.156214 10.950913,9.047597 10.450855,8.9470188 9.1899713,8.693413 7.8079664,8.0791468 6.7611681,7.3070446 6.2428924,6.9247724 5.6695542,6.4112182 5.2900541,5.9893288 5.0989753,5.7769069 4.9293845,5.5975265 4.9131859,5.5907056 4.8969873,5.5838843 4.809449,5.7290008 4.7186561,5.9131866 4.5246431,6.3067694 4.4341138,6.7275269 4.4341138,7.2356675 c 0,0.9696588 0.3491376,1.7748588 1.1216747,2.5868652 0.1987854,0.2089413 0.31486,0.3575453 0.2690246,0.3444173 -0.044341,-0.0127 -0.2300048,-0.06074 -0.4125854,-0.106765 -0.2808,-0.070779 -0.5621538,-0.1654372 -0.9075712,-0.3053431 -0.061165,-0.024774 -0.070543,-0.00366 -0.070543,0.1588356 0,0.2768255 0.1112297,0.7691045 0.2485107,1.0998575 0.380717,0.917264 1.1841579,1.645925 2.1700968,1.968115 0.2049677,0.06698 0.2136102,0.07464 0.1144751,0.101418 -0.2886911,0.07799 -0.6842184,0.08555 -0.9585462,0.01832 -0.4297341,-0.105312 -0.435725,-0.09789 -0.242654,0.30073 0.5594896,1.155126 1.5626155,1.891915 2.7371905,2.010445 L 8.7629528,15.438778 8.41482,15.6521 c -0.751323,0.460382 -1.7149422,0.848198 -2.5275915,1.017249 -0.3377517,0.07026 -1.1345902,0.140702 -1.9305113,0.17066 l -0.2556908,0.0096 0.506405,0.275811 c 1.3896101,0.756845 2.7869151,1.161533 4.3181601,1.250629 0.3274871,0.01905 1.1206751,-0.01012 1.6124045,-0.0593 z"
   id="path38769" /></svg>
