<?xml version="1.0" encoding="UTF-8" standalone="no"?>
<!-- Uploaded to: SVG Repo, www.svgrepo.com, Generator: SVG Repo Mixer Tools -->

<svg
   fill="#000000"
   version="1.1"
   id="Layer_1"
   viewBox="0 0 24 24"
   xml:space="preserve"
   sodipodi:docname="twitter_dark.svg"
   inkscape:version="1.2.2 (b0a8486541, 2022-12-01)"
   xmlns:inkscape="http://www.inkscape.org/namespaces/inkscape"
   xmlns:sodipodi="http://sodipodi.sourceforge.net/DTD/sodipodi-0.dtd"
   xmlns="http://www.w3.org/2000/svg"
   xmlns:svg="http://www.w3.org/2000/svg"><defs
   id="defs22223"><clipPath
     clipPathUnits="userSpaceOnUse"
     id="clipPath26559"><rect
       style="fill:#c58fbd;fill-opacity:0.420724"
       id="rect26561"
       width="20.283413"
       height="20.177042"
       x="1.8621192"
       y="1.9086688" /></clipPath><clipPath
     clipPathUnits="userSpaceOnUse"
     id="clipPath26563"><rect
       style="fill:#c58fbd;fill-opacity:0.420724"
       id="rect26565"
       width="20.283413"
       height="20.177042"
       x="1.8621192"
       y="1.9086688" /></clipPath><clipPath
     clipPathUnits="userSpaceOnUse"
     id="clipPath26567"><rect
       style="fill:#c58fbd;fill-opacity:0.420724"
       id="rect26569"
       width="20.283413"
       height="20.177042"
       x="1.8621192"
       y="1.9086688" /></clipPath></defs><sodipodi:namedview
   id="namedview22221"
   pagecolor="#505050"
   bordercolor="#eeeeee"
   borderopacity="1"
   inkscape:showpageshadow="0"
   inkscape:pageopacity="0"
   inkscape:pagecheckerboard="0"
   inkscape:deskcolor="#505050"
   showgrid="false"
   inkscape:zoom="24.807663"
   inkscape:cx="4.9984555"
   inkscape:cy="12.516294"
   inkscape:window-width="1854"
   inkscape:window-height="1011"
   inkscape:window-x="66"
   inkscape:window-y="32"
   inkscape:window-maximized="1"
   inkscape:current-layer="Layer_1" />
<style
   type="text/css"
   id="style22214">
	.st0{fill:none;}
</style>
<path
   d="M 20,2 H 4 C 2.9,2 2,2.9 2,4 v 16 c 0,1.1 0.9,2 2,2 h 16 c 1.1,0 2,-0.9 2,-2 V 4 C 22,2.9 21.1,2 20,2 Z m -2.4,6.8 c 0,0.1 0,0.2 0,0.4 0,3.8 -2.9,8.2 -8.2,8.2 -1.6,0 -3.1,-0.5 -4.4,-1.3 0.2,0 0.5,0 0.7,0 1.3,0 2.6,-0.5 3.6,-1.2 C 8,14.9 7,14 6.6,12.9 6.8,12.9 7,13 7.1,13 7.4,13 7.6,13 7.9,12.9 6.6,12.6 5.6,11.5 5.6,10.1 v 0 C 6,10.3 6.4,10.4 6.9,10.5 6.1,9.8 5.6,9 5.6,8 5.6,7.5 5.7,7 6,6.6 c 1.4,1.7 3.5,2.9 5.9,3 0,-0.2 -0.1,-0.4 -0.1,-0.7 0,-1.6 1.3,-2.9 2.9,-2.9 0.8,0 1.6,0.3 2.1,0.9 0.7,-0.1 1.3,-0.4 1.8,-0.7 -0.2,0.7 -0.7,1.2 -1.3,1.6 0.6,-0.1 1.1,-0.2 1.7,-0.5 -0.4,0.6 -0.9,1.1 -1.4,1.5 z"
   id="path22216"
   clip-path="url(#clipPath26567)"
   transform="matrix(1.1832942,0,0,1.1814951,-2.1793139,-2.1913647)" />
<rect
   class="st0"
   width="24"
   height="24"
   id="rect22218"
   clip-path="url(#clipPath26563)" />
<path
   style="fill:#ffffff;fill-opacity:0.98431373;stroke-width:0.0403101"
   d="M 8.4651263,18.336854 C 6.9283859,18.205875 5.8298298,17.898814 4.5224658,17.234827 3.6868219,16.810418 3.6880015,16.832266 4.5006508,16.830759 c 1.0415954,-0.0019 1.7966004,-0.151746 2.772078,-0.550062 0.5979255,-0.24415 1.5551886,-0.777349 1.5551886,-0.866247 0,-0.01988 -0.096866,-0.03614 -0.2152576,-0.03614 -0.1183917,0 -0.3587408,-0.03646 -0.5341092,-0.08103 C 7.3759148,15.118723 6.7206964,14.691785 6.2651436,14.115674 6.0091452,13.791928 5.646811,13.144426 5.6947941,13.096442 c 0.013985,-0.01398 0.1527836,0.0058 0.3084421,0.04393 0.2927339,0.07174 0.576269,0.06443 0.9804008,-0.02526 0.2095469,-0.04651 0.2200871,-0.09125 0.030429,-0.129185 C 6.9466894,12.972453 6.7563897,12.905154 6.5911781,12.836376 5.4291636,12.352629 4.5868686,11.245372 4.4876045,10.071079 l -0.025734,-0.3044359 0.1171297,0.059243 c 0.245178,0.1240089 1.182974,0.3927309 1.3705656,0.3927309 0.032606,0 -0.073308,-0.131512 -0.2353652,-0.2922486 C 5.14974,9.3665079 4.7645595,8.7564739 4.5879433,8.1426453 4.5102857,7.8727468 4.4951092,7.7248586 4.4948676,7.2356675 4.4946199,6.7340243 4.5080129,6.6083845 4.5893498,6.3493326 4.6755644,6.0747453 4.7708656,5.8584842 4.8720167,5.7078938 c 0.029299,-0.043619 0.1464996,0.056184 0.5155133,0.4389927 0.2626762,0.2724958 0.649919,0.639364 0.8605394,0.815263 1.4513147,1.2120604 3.2863882,1.9831599 5.1705116,2.1726534 0.260911,0.026241 0.484738,0.037355 0.497394,0.024699 0.01266,-0.012656 -0.0058,-0.1624039 -0.04105,-0.3327724 -0.282435,-1.3657099 0.481048,-2.8621079 1.79616,-3.5204074 0.558667,-0.2796491 0.936004,-0.3717953 1.52583,-0.3726096 0.930582,-0.00128 1.698992,0.2784392 2.283651,0.8313158 l 0.231086,0.2185242 0.302194,-0.06242 c 0.410896,-0.084873 0.836352,-0.2451093 1.348776,-0.50798 0.236306,-0.121224 0.429648,-0.2110284 0.429648,-0.1995656 0,0.011463 -0.07124,0.1672828 -0.158312,0.3462665 -0.19131,0.3932544 -0.506988,0.7836321 -0.870051,1.075934 -0.148198,0.1193137 -0.317559,0.258295 -0.376359,0.3088474 l -0.106908,0.091913 0.20155,-0.026255 c 0.319281,-0.041591 1.059561,-0.2371021 1.400777,-0.369952 0.171822,-0.066897 0.312404,-0.1131247 0.312404,-0.1027271 0,0.1092367 -1.033524,1.2300387 -1.387118,1.5042557 l -0.181925,0.1410854 -0.0015,0.4693729 c -0.01041,3.2027013 -1.669437,6.3449563 -4.274937,8.0968903 -1.199976,0.806862 -2.568415,1.318493 -4.030475,1.506913 -0.4796731,0.06182 -1.5363587,0.107818 -1.8542657,0.08072 z"
   id="path27379" /></svg>
